<?xml version="1.0" encoding="UTF-8" standalone="no"?>
<!-- Created with Inkscape (http://www.inkscape.org/) -->

<svg
   version="1.1"
   id="svg1"
   width="1024"
   height="1024"
   viewBox="0 0 1024 1024"
   xmlns="http://www.w3.org/2000/svg"
   xmlns:svg="http://www.w3.org/2000/svg">
  <defs
     id="defs1" />
  <g
     id="g1">
    <path
       style="display:inline;fill:#1c3048;fill-opacity:1"
       d="M 0,512 V 0 h 512 512 v 512 512 H 512 0 Z m 556.5,430.02161 c 58.48283,-6.4718 119.40246,-26.62609 170.06006,-56.26168 20.87053,-12.20963 50.30514,-33.01469 65.40346,-46.22867 11.43286,-10.00599 15.93684,-14.27672 28.69824,-27.21203 61.7845,-62.62652 104.02842,-145.62471 117.76322,-231.37378 4.25747,-26.58023 4.95451,-36.17565 5.00843,-68.94545 0.0555,-33.74708 -0.62693,-42.72411 -5.43562,-71.5 C 914.00215,296.90666 815.93535,173.22107 678.81264,113.6058 622.98548,89.334468 553.70426,76.839297 492.58895,80.019543 402.30104,84.717839 321.56713,114.5039 250.5,169.33611 218.97893,193.65635 192.84069,219.80658 168.87354,251 121.02941,313.26949 92.311911,384.28124 82.330907,465 c -2.512663,20.3205 -2.50045,72.08737 0.02205,93.46222 8.983933,76.12695 34.744313,142.32484 79.891543,205.30178 23.80032,33.19962 59.84343,69.79767 92.2555,93.67589 56.72932,41.79293 118.92597,68.66184 186.2465,80.45836 14.73381,2.5818 23.14795,3.58409 46.2535,5.50971 8.68877,0.72413 59.60688,-0.29156 69.5,-1.38635 z M 485,913.92194 C 409.00204,908.71017 331.66263,879.05441 268,830.7134 247.78865,815.36629 220.46444,789.27761 203.88761,769.5 c -63.69822,-75.99757 -97.00472,-169.69569 -94.55398,-266 0.8631,-33.9161 3.67697,-56.08725 10.72441,-84.5 4.95676,-19.98392 7.53971,-28.42908 13.81147,-45.15769 26.36391,-70.32025 70.40862,-130.41863 130.89814,-178.60865 35.49783,-28.27995 80.30582,-52.51879 122.73235,-66.39194 24.40686,-7.98086 54.57616,-14.50363 83.5,-18.05316 16.41879,-2.01491 67.02955,-1.69643 85,0.53489 51.17412,6.35408 92.83678,18.94115 136.71498,41.30414 86.76775,44.2221 154.15849,117.14492 192.10277,207.87241 21.50513,51.4203 31.36923,104.58477 29.87182,161 -1.11524,42.01709 -7.23531,76.57044 -20.63443,116.5 C 856.07711,751.17506 769.40501,841.91802 656.5,886.71272 600.35297,908.98887 543.83052,917.95641 485,913.92194 Z m 73.5,-17.36264 c 75.90429,-10.6349 143.41709,-40.7146 203,-90.44476 13.19963,-11.01692 40.77225,-38.99129 50.67118,-51.40951 37.68481,-47.27559 62.30839,-96.83011 76.84965,-154.65858 3.37044,-13.40372 7.74741,-41.21277 9.0539,-57.52388 1.4545,-18.15898 0.65954,-60.882 -1.44248,-77.52257 C 889.95023,412.10218 870.41073,356.79022 842.2302,311 821.07414,276.62375 789.77179,240.40845 759.66346,215.47427 672.92244,143.6398 566.64993,112.85725 458.02137,128.1016 343.84399,144.12464 239.44739,214.37146 178.77804,316 c -28.42165,47.60971 -46.52238,102.61706 -52.3206,159 -2.04074,19.84455 -1.52978,62.93977 0.98409,83 3.03547,24.22246 9.08547,50.37756 17.57973,76 32.22622,97.20852 106.85235,181.22328 201.14279,226.44833 41.18561,19.75409 81.59854,31.34788 129.33595,37.10433 15.60534,1.88179 66.85725,1.26839 83,-0.99336 z m -65.13573,-10.69976 c -24.16246,-1.45086 -33.66662,-3.07886 -45.22226,-7.74631 -26.71912,-10.79212 -47.32945,-22.77687 -59.76544,-34.75314 -12.70882,-12.23901 -18.17631,-24.28074 -17.06161,-37.57691 1.82456,-21.76333 20.27307,-38.19048 60.68504,-54.03593 6.325,-2.48002 17.575,-6.88254 25,-9.78338 29.493,-11.52249 46.57063,-21.32335 57.01384,-32.72028 6.24818,-6.81879 7.27385,-6.67761 3.9937,0.54972 -4.33368,9.54863 -19.81191,22.28124 -38.01027,31.26779 -4.64244,2.29249 -17.2285,7.74138 -27.96903,12.10866 -43.58037,17.72048 -59.12355,27.53019 -66.77368,42.14263 -3.74165,7.1469 -3.8779,18.77347 -0.30542,26.06345 2.8526,5.82101 11.25126,15.1225 19.12593,21.18192 20.21273,15.55335 60.05498,31.59456 107.42493,43.25123 4,0.98431 4,0.98431 0,0.94183 -2.2,-0.0234 -10.36108,-0.42444 -18.13573,-0.89128 z M 602.5,871.32561 c -1.1,-0.24332 -9.2,-1.80442 -18,-3.46912 -8.8,-1.6647 -25,-5.28218 -36,-8.03885 -57.14076,-14.31984 -87.93267,-29.74563 -97.25082,-48.71965 -2.26663,-4.6154 -2.74555,-6.91443 -2.72849,-13.09799 0.0268,-9.72278 2.42917,-15.0381 10.68044,-23.63094 8.61294,-8.96948 15.43468,-13.25464 46.55234,-29.24239 29.4186,-15.11481 36.5788,-19.52902 44.14392,-27.21442 6.52959,-6.63339 9.37786,-12.55666 9.31659,-19.37481 -0.0616,-6.85026 -2.58323,-11.72099 -10.38731,-20.06358 -9.23418,-9.87137 -22.64187,-18.13535 -61.04313,-37.62465 C 452.13518,622.75705 428.8612,609.51429 414.18564,598.97243 409.61275,595.6876 405.44872,593 404.93226,593 c -1.82217,0 -20.92867,12.51078 -20.60221,13.49015 0.47611,1.42833 14.29806,9.63742 36.16995,21.48196 57.84103,31.32333 70.63326,42.32108 69.25135,59.53683 -0.62119,7.73866 -2.65884,11.61409 -9.62667,18.30906 -9.99051,9.59927 -28.90195,17.39496 -64.62468,26.63962 -25.80191,6.67726 -47.29202,13.14719 -60.29507,18.15277 -37.54522,14.4532 -59.54174,33.15653 -64.26026,54.63961 -0.69461,3.1625 -1.44852,5.75 -1.67536,5.75 -1.06101,0 -19.86542,-15.80626 -29.26931,-24.60266 -29.55772,-27.64829 -49.7005,-52.15882 -68.80827,-83.72862 -8.13842,-13.44626 -22.1481,-41.28437 -27.20724,-54.06249 -2.79861,-7.06858 -3.8446,-4.92908 12.51551,-25.59966 25.30877,-31.97698 23.084,-28.17232 19.84546,-33.93836 -1.565,-2.7864 -3.07046,-5.03552 -3.34546,-4.99804 -0.275,0.0375 -8.35842,10.15609 -17.96316,22.48582 -9.60474,12.32973 -17.76949,22.08611 -18.14389,21.68085 -0.37441,-0.40526 -1.82527,-4.56184 -3.22414,-9.23684 -5.76316,-19.26037 -10.19686,-39.86731 -13.23208,-61.5 -2.06065,-14.68681 -2.9647,-57.35374 -1.58246,-74.68542 2.02697,-25.41591 8.44353,-58.33998 16.07433,-82.4791 3.08384,-9.75537 3.23203,-9.98616 18.19303,-28.33548 50.629,-62.09529 49.86973,-61.2046 53.91649,-63.24845 4.2029,-2.1227 13.0147,-2.2998 16.76154,-0.33687 3.89129,2.03861 7.47796,6.20899 19.85418,23.08532 6.05012,8.25 12.99055,17.68101 15.42319,20.9578 2.43263,3.27678 4.72151,6.3903 5.08639,6.91892 0.71252,1.03227 9.3928,-1.84965 10.37944,-3.44606 0.30994,-0.50151 -5.09151,-8.59915 -12.00324,-17.99477 -7.36664,-10.01402 -12.27391,-17.56976 -11.85904,-18.25941 0.81678,-1.35776 21.71119,-26.49814 51.14759,-61.54135 22.09269,-26.30074 24.20699,-28.09121 33.17183,-28.09121 2.475,0 6.30386,0.81948 8.50858,1.82106 4.43026,2.01263 4.86374,2.47755 21.99142,23.5862 33.97362,41.87009 50.43287,61.48705 77.61791,92.50891 18.37332,20.96648 16.61244,19.63076 22.26131,16.88633 2.54143,-1.23472 4.62078,-2.63704 4.62078,-3.11625 0,-0.47922 -7.13822,-8.82705 -15.86272,-18.55074 -8.72449,-9.72369 -24.43447,-27.99943 -34.91105,-40.61277 -19.04834,-22.93333 -19.04834,-22.93333 -16.38728,-26.4795 27.67012,-36.87372 75.14196,-97.25037 78.30155,-99.58716 3.56119,-2.63381 4.87719,-3 10.78118,-3 5.52882,0 7.37694,0.44463 10.39123,2.5 3.76598,2.56792 65.45315,81.56727 64.46441,82.55601 -0.1573,0.1573 -3.88404,-0.60964 -8.28166,-1.70431 -12.18858,-3.03403 -31.68529,-3.07811 -41.17919,-0.0931 -12.51616,3.93525 -19.35352,10.64307 -20.10673,19.72581 -0.715,8.62196 1.55065,13.15386 11.91678,23.83668 C 540.08995,311.61945 543,316.96515 543,325.80637 c 0,12.05601 -7.55727,21.80153 -26.5,34.1732 -12.85095,8.39308 -40.31891,21.01687 -85,39.06451 -19.35756,7.81893 -48.72308,21.35904 -59.52379,27.44576 -22.08,12.44312 -41.79117,28.6691 -50.38242,41.47414 -22.17115,33.04553 -17.3028,68.06978 14.03966,101.00535 4.59301,4.82647 10.88707,10.73202 13.98679,13.12344 5.63586,4.34803 5.63586,4.34803 10.75781,1.50539 10.60832,-5.88753 30.62149,-18.01198 30.6101,-18.54433 -0.007,-0.3046 -2.55935,-2.32271 -5.67296,-4.48468 -14.44819,-10.03223 -26.41153,-24.18382 -31.5984,-37.37817 -3.92974,-9.99646 -4.93503,-25.48857 -2.25269,-34.71548 7.52216,-25.87534 30.19295,-46.5036 76.40917,-69.52509 14.01671,-6.98209 33.15087,-15.25961 33.79193,-14.61854 0.43783,0.43782 -10.19206,7.05052 -29.6652,18.45428 -24.91621,14.59131 -37.41092,23.63031 -50.05878,36.21385 -9.87065,9.82045 -12.17468,12.74141 -15.77589,20 -5.39428,10.8727 -7.31883,19.85099 -6.10001,28.45742 1.90064,13.42093 7.98185,24.46506 19.60921,35.61245 6.37027,6.1073 19.18919,15.93013 20.78903,15.93013 1.93797,0 15.4364,-10.35415 14.81768,-11.3661 -0.38131,-0.62364 -2.24418,-3.1589 -4.13972,-5.6339 -4.52171,-5.90398 -9.67937,-16.88898 -11.73499,-24.99366 -2.30282,-9.07927 -1.49992,-24.03343 1.80017,-33.52873 5.95293,-17.12823 19.84393,-32.28023 45.2933,-49.40494 12.78315,-8.60169 21.18781,-13.69497 53,-32.11835 41.18623,-23.85215 59.47148,-38.63686 67.60626,-54.66368 3.03048,-5.97051 3.39214,-7.5481 3.37879,-14.73842 -0.026,-13.98459 -4.68707,-21.12004 -23.67693,-36.24589 -6.51612,-5.19023 -12.61591,-10.60954 -13.55508,-12.04289 -2.32432,-3.54737 -2.20214,-9.55722 0.24939,-12.26612 4.07228,-4.49982 8.03778,-5.42069 23.49757,-5.45663 13.60234,-0.0316 15.42861,0.20399 29.5,3.80577 19.0696,4.88116 23.58772,5.35137 30.92474,3.21844 7.28201,-2.11694 10.31669,-4.93945 25.87385,-24.0649 13.57007,-16.68258 17.31986,-19.5 25.95314,-19.5 5.86365,0 10.98566,2.47977 15.83274,7.66527 3.01262,3.22295 53.22753,63.63949 65.24457,78.49961 3.77238,4.66488 3.77238,4.66488 -7.94188,20.5 -6.44285,8.70932 -15.06819,20.29092 -19.16742,25.73689 -4.09923,5.44598 -6.68883,9.60848 -5.75466,9.25 0.93417,-0.35847 4.35461,-0.65177 7.60096,-0.65177 5.90247,0 5.90247,0 28.16821,-29.75 13.20521,-17.64392 23.68999,-30.70079 25.76575,-32.08651 4.71086,-3.14485 14.88209,-2.80777 19.74417,0.65435 1.75968,1.253 13.88463,15.41907 26.94433,31.48017 13.0597,16.06109 27.54825,33.88104 32.19678,39.59987 8.05706,9.91219 8.61059,10.91649 11.84986,21.5 11.28062,36.85669 16.4516,71.156 16.44827,109.10212 -0.003,37.28655 -3.94692,65.49011 -14.20773,101.60884 -4.58052,16.12372 -12.88651,39.10276 -13.98326,38.68553 -0.82511,-0.31389 -9.81548,-11.07556 -24.89039,-29.79437 -18.60904,-23.1072 -26.00786,-29.00942 -36.34113,-28.99023 -11.07723,0.0206 -17.7136,5.34764 -34.63919,27.80519 -9.28142,12.31497 -9.28142,12.31497 -6.87176,18.3377 2.40966,6.02273 2.40966,6.02273 15.70642,-11.09648 17.65037,-22.72438 21.47443,-25.71926 29.47051,-23.08031 3.41837,1.12816 11.99273,9.47193 20.07312,19.53329 2.2,2.73935 10.48767,12.83037 18.41705,22.42451 14.41706,17.44387 14.41706,17.44387 7.80864,30.5051 -27.82106,54.987 -66.95424,100.69491 -118.22569,138.08864 -6.6,4.81357 -13.3618,9.32806 -15.02623,10.03219 -4.95575,2.09653 -47.13651,3.56855 -69.11998,2.41214 -23.55545,-1.2391 -34.4831,-2.33759 -55.35379,-5.56439 -36.57316,-5.65454 -56.30638,-11.79985 -67.76552,-21.10351 -5.2238,-4.2412 -7.23448,-7.936 -7.23448,-13.29402 0,-11.17508 11.0063,-20.84562 37,-32.50953 17.30594,-7.76554 30.14573,-14.43907 36.5,-18.97099 24.68417,-17.60499 28.04944,-39.74165 9.16544,-60.29003 -11.32995,-12.32855 -24.7015,-20.7501 -64.71685,-40.75942 -45.69954,-22.85166 -64.0029,-33.91746 -87.15785,-52.69371 C 438.83143,577.95376 433.69092,574 433.36738,574 432.43067,574 414,587.24648 414,587.91972 c 0,0.75459 25.17302,17.49401 34,22.60913 3.575,2.07167 23.82993,12.62814 45.01096,23.45881 21.18104,10.83068 42.55604,22.30133 47.5,25.49034 11.59311,7.4779 22.25168,18.14187 26.00882,26.022 3.97988,8.34731 4.13055,18.54549 0.39175,26.51706 -5.71028,12.17499 -17.13699,20.59522 -52.94239,39.01269 -29.67116,15.26217 -39.02796,21.14026 -46.69093,29.332 -8.93439,9.55089 -10.60966,18.04087 -5.36434,27.1856 6.73558,11.74285 22.47177,21.15435 52.46339,31.37729 29.55609,10.07449 70.35516,18.98306 107.7859,23.5353 6.96474,0.84703 13.03974,1.56107 13.5,1.58674 0.46026,0.0257 -4.29731,1.82568 -10.57237,4 -10.8003,3.74233 -16.65442,4.59202 -22.59079,3.27893 z m -11.79441,-62.91376 c 8.10916,-5.53122 23.07123,-11.83594 45.94971,-19.36228 26.97385,-8.8736 43.93807,-15.77889 56.93349,-23.17477 28.89109,-16.44236 49.45599,-41.11276 56.57946,-67.8748 3.2435,-12.18542 3.27379,-32.20139 0.0655,-43.29918 -9.77619,-33.81724 -35.0132,-50.45305 -58.78512,-38.75017 -7.57445,3.72889 -15.89536,12.26918 -26.37049,27.06572 -20.94219,29.58168 -30.29938,40.20314 -40.95068,46.48363 -5.45623,3.21724 -5.74603,4.00669 -4.31987,11.7679 0.69237,3.7679 0.69237,3.7679 7.07186,0 14.62215,-8.63624 22.47094,-16.95907 43.63258,-46.2679 19.12811,-26.49239 24.361,-31 35.98793,-31 10.91837,0 20.23259,7.148 27.48911,21.09595 5.28533,10.15908 7.31748,18.9835 7.23193,31.40405 -0.21928,31.83736 -19.69422,60.44478 -54.6207,80.23426 -10.3753,5.87869 -26.05717,12.11305 -52.60034,20.91139 -28.31838,9.38676 -43.81302,16.42544 -54.17441,24.60953 -3.65208,2.88465 -6.45474,5.43445 -6.22813,5.66623 0.22662,0.23178 3.22239,0.97519 6.65728,1.65203 3.43489,0.67684 6.33778,1.27471 6.45085,1.32859 0.11308,0.0539 1.91308,-1.0667 4,-2.49018 z M 366.10078,734.91193 c 1.86957,-0.59844 3.9572,-1.25758 4.63917,-1.46476 1.99404,-0.60577 -4.24537,-8.96267 -10.7059,-14.33917 -3.16523,-2.63413 -11.10525,-7.84244 -17.6445,-11.57403 -17.33167,-9.89021 -24.77542,-15.07558 -30.13124,-20.98962 -9.81434,-10.83727 -15.24228,-23.18642 -17.43709,-39.67127 -1.30056,-9.7683 -1.07091,-9.55433 -8.8696,-8.26395 -3.54838,0.58712 -3.54838,0.58712 -2.78913,7.69294 1.58358,14.8206 6.15252,28.44922 12.95011,38.6287 5.73287,8.58503 17.6862,19.2805 28.78174,25.753 5.28311,3.08187 13.07155,7.64025 17.30764,10.12975 4.23609,2.48949 10.07072,6.92488 12.96584,9.85641 5.70646,5.77824 5.89956,5.85316 10.93296,4.242 z m 204.74577,-99.01697 c 8.83154,-7.79076 23.74303,-16.8131 50.65345,-30.64839 46.7959,-24.05888 57.09977,-30.75316 73.10599,-47.49596 14.42706,-15.09097 20.71783,-29.43816 20.71783,-47.25061 0,-21.74419 -10.85906,-41.18901 -31.8066,-56.95458 C 675.8594,447.78197 654.52108,436 651.74073,436 649.96952,436 628,452.74415 628,454.09408 c 0,0.4759 1.71462,1.74001 3.81028,2.80913 6.53505,3.33394 19.42458,13.47048 25.68972,20.20283 21.72814,23.34847 20.25709,53.24086 -3.87046,78.64972 C 645.7442,564.05985 639.92714,568.7693 626.5,577.71961 610.39973,588.4518 579.84429,605 576.12811,605 c -2.05363,0 7.56709,-7.30817 25.32908,-19.24068 37.99617,-25.52584 51.42763,-38.65923 58.55886,-57.25932 3.21581,-8.38766 3.24696,-21.69355 0.069,-29.47912 -4.93174,-12.08212 -16.68949,-24.37508 -32.25413,-33.72234 -8.19014,-4.91855 -7.97993,-4.929 -14.14272,0.70344 -5.59019,5.10912 -5.59019,5.10912 -2.18677,9.56785 4.42006,5.79059 10.16337,17.47036 12.01308,24.43017 1.90628,7.17265 1.8809,19.06169 -0.0566,26.50017 -0.84813,3.2562 -3.43563,9.52071 -5.75,13.92112 -5.19422,9.87602 -19.53656,24.62334 -34.1154,35.07871 -20.38808,14.62153 -28.29411,20.69258 -36.11625,27.73374 -8.06726,7.2618 -16.03105,16.15589 -16.64883,18.59367 -0.20404,0.80515 6.07985,4.43957 16.67254,9.64293 9.35,4.59292 17.38095,8.39102 17.84655,8.44021 0.4656,0.0492 2.9406,-1.75782 5.5,-4.01559 z M 304,626.40252 C 350.67943,618.25797 414.41751,580.84521 484.42036,520.5 c 7.65626,-6.6 15.84217,-13.62502 18.19092,-15.61115 4.27044,-3.61116 4.27044,-3.61116 1.03197,-6.75 C 501.8621,496.41248 500.03995,495 499.59404,495 c -0.44592,0 -7.17449,5.30873 -14.9524,11.79717 -77.1463,64.35663 -131.1659,97.16797 -176.79792,107.38652 -14.45233,3.23637 -34.8598,3.24686 -46.14213,0.0237 -22.67934,-6.47903 -39.34604,-20.45662 -49.73138,-41.70741 -9.31721,-19.06516 -12.59428,-35.50557 -11.64414,-58.41636 1.64648,-39.70157 15.42562,-71.03346 43.5952,-99.12955 C 263.96233,394.96533 281.47107,384.279 318.5,369.43552 362.26786,351.89066 382.40896,339.16168 396.72196,320 c 5.4757,-7.33065 11.59147,-19.65459 10.57297,-21.30566 -2.12001,-3.43673 -7.88122,-10.62083 -8.54493,-10.65534 -0.4125,-0.0214 -0.75,1.09724 -0.75,2.48598 0,7.69954 -7.46373,20.6131 -18.0799,31.28139 -12.35015,12.41079 -28.16952,21.68379 -57.4201,33.6585 -48.20415,19.73399 -66.37437,30.45539 -87.46695,51.6102 -22.27005,22.33574 -37.35618,50.11513 -43.43152,79.97423 -7.67063,37.69961 -1.11791,76.57171 17.43084,103.40343 15.39777,22.27366 36.25,34.00261 67.46763,37.94918 4.74178,0.59946 18.22243,-0.38065 27.5,-1.99939 z M 295.90296,604.75 c 0.90256,-2.37944 3.55142,-21.45964 4.62022,-33.28024 1.37652,-15.22383 -3.14619,-37.02306 -9.75281,-47.00811 -7.28014,-11.00298 -14.35286,-15.62628 -24.88796,-16.26879 -12.67167,-0.77281 -19.28508,4.26379 -37.80194,28.78896 -6.44404,8.535 -12.01113,16.01795 -12.37132,16.62878 -0.73553,1.24737 3.31926,11.56768 4.38251,11.15446 0.37511,-0.14578 6.63103,-7.91506 13.90206,-17.26506 19.83122,-25.50145 22.05291,-27.5 30.57047,-27.5 6.45181,0 11.37546,3.03913 15.7943,9.74905 8.48202,12.8798 10.50839,30.83106 6.72439,59.5702 -1.14558,8.70059 -2.08288,16.23809 -2.08288,16.75 0,0.51191 2.26114,0.93075 5.02475,0.93075 4.29131,0 5.14933,-0.32842 5.87821,-2.25 z M 679.5,594.38703 c 35.54593,-9.36315 63.6687,-22.91038 85.57296,-41.22199 20.95682,-17.51958 34.91686,-38.56407 41.65533,-62.79462 2.46346,-8.85825 2.74631,-11.51115 2.75833,-25.87042 0.0161,-19.28306 -1.45986,-26.39965 -8.50342,-41 -8.08756,-16.7644 -19.2953,-28.08774 -35.08974,-35.45167 -36.75707,-17.13745 -82.7165,-4.62034 -135.39346,36.87457 -11.56102,9.10689 -62.4317,52.60604 -95.69011,81.82391 -18.6901,16.41947 -18.6901,16.41947 -15.19777,19.48577 3.49233,3.06631 3.49233,3.06631 6.69011,0.73241 3.72955,-2.72202 19.3078,-15.84312 80.78495,-68.04278 37.53457,-31.87024 52.62958,-42.86488 72.52674,-52.82575 32.09617,-16.0679 61.38136,-18.07661 84.87896,-5.82195 8.96281,4.67435 21.08158,17.31032 25.63161,26.72549 11.24533,23.26947 11.11068,51.30712 -0.36568,76.14621 -10.80423,23.38434 -32.45063,45.13681 -59.25881,59.54918 -13.71466,7.37315 -18.80607,9.55198 -34.5,14.76402 -9.54431,3.16971 -14.15519,5.3353 -19.5,9.15854 -3.85,2.75398 -10.2625,6.94285 -14.25,9.30861 -3.9875,2.36575 -7.25,4.44146 -7.25,4.61267 0,0.17122 2.3625,-0.31324 5.25,-1.07658 2.8875,-0.76333 11.55,-3.04736 19.25,-5.07562 z m -143.13504,-17.3211 c 17.58487,-4.56764 23.33582,-11.48942 16.32138,-19.6442 -2.28921,-2.66136 -2.31432,-2.66547 -5.67317,-0.92854 -6.78046,3.50631 -20.7216,1.66205 -30.63732,-4.05299 -4.12416,-2.37701 -4.12416,-2.37701 -11,0.98765 -11.82016,5.78411 -21.30797,6.72709 -28.78449,2.86083 -2.89821,-1.49872 -3.05272,-1.45594 -5.78455,1.60151 -7.95233,8.9002 1.62705,16.94973 24.67712,20.7361 11.06377,1.81742 30.77316,1.06514 40.88103,-1.56036 z m -35.29056,-7.34567 c -2.98408,-0.67114 -5.58949,-1.72398 -5.7898,-2.33965 C 494.84085,566.0167 507.9832,561 512,561 c 3.51062,0 17,4.87253 17,6.14061 0,2.93051 -18.68937,4.65696 -27.9256,2.57965 z M 500.25,547.9486 c 2.6125,-1.29092 4.75,-2.68456 4.75,-3.09697 0,-0.41242 -1.56085,-1.94037 -3.46857,-3.39545 -3.46856,-2.64561 -3.46856,-2.64561 -7.98826,-0.91952 -4.39899,1.67999 -10.6487,1.66598 -14.79317,-0.0332 -1.51562,-0.62138 -1.75,-0.10711 -1.75,3.83983 0,5.97695 1.47882,6.82911 11,6.33871 5.24894,-0.27036 8.92567,-1.09077 12.25,-2.73343 z m 44.81574,2.01622 c 1.47555,-0.7897 1.93426,-2.10999 1.93426,-5.56739 0,-4.27559 -0.1274,-4.48592 -2.25,-3.71482 -1.2375,0.44957 -4.76785,0.79177 -7.84522,0.76047 -8.84477,-0.09 -15.62351,-3.95817 -27.0899,-15.45844 -9.68512,-9.71373 -9.68512,-9.71373 -12.77202,-6.52886 -3.08689,3.18486 -3.08689,3.18486 2.72593,10.11454 6.60855,7.87829 17.80218,16.35562 25.50694,19.31729 5.71591,2.19716 16.59125,2.78913 19.79001,1.07721 z M 489.75,534.36971 c 2.78308,-0.74583 2.87293,-2.49599 0.25,-4.86971 -1.9317,-1.74816 -2.07684,-1.74492 -4.25,0.095 -2.95493,2.50183 -3.72476,3.63681 -3.125,4.60724 0.58044,0.93918 3.94985,1.01837 7.125,0.16746 z m 53.84887,-0.98365 C 546.9024,531.81843 547,531.6022 547,525.85087 c 0,-7.0083 -0.14716,-6.98361 -9.5,1.59328 -4.92404,4.51553 -5.73101,5.68361 -4.5,6.51372 2.22334,1.49928 6.7489,1.25512 10.59887,-0.57181 z M 528.9222,502.59375 c 1.96438,-2.36694 -17.22067,-21.10929 -25.92276,-25.3246 -7.95896,-3.85533 -15.35025,-5.60785 -19.99944,-4.74201 -4.96395,0.92447 -6,2.13574 -6,7.0147 0,4.29695 0,4.29695 3.71521,3.27113 5.26229,-1.45299 11.54957,-0.32212 18.34455,3.29957 6.81368,3.63165 16.29533,11.90635 20.3541,17.76316 2.83146,4.0858 2.83146,4.0858 5.54762,2.15173 1.49388,-1.06374 3.2762,-2.60889 3.96072,-3.43368 z m -43.10996,-5.99127 C 489.21551,493.90885 492,491.34174 492,490.8978 c 0,-1.13568 -6.53251,-2.232 -9.24343,-1.55129 -4.20125,1.05494 -5.52869,2.97403 -6.23981,9.02087 -0.79149,6.73033 -1.64176,6.89177 9.29548,-1.7649 z m 53.56252,-3.47176 c 2.35673,-2.4599 2.51443,-2.95926 1.1053,-3.5 -2.29986,-0.88254 -3.93042,-0.79019 -7.06053,0.39988 -2.71067,1.03059 -2.71067,1.03059 -0.39079,3.5 1.27594,1.35817 2.60726,2.4694 2.95848,2.4694 0.35123,0 1.87562,-1.29117 3.38754,-2.86928 z m -8.9734,-9.75181 c 4.58929,-1.56373 10.86895,-1.51399 14.84864,0.1176 1.5161,0.62157 1.75,0.10642 1.75,-3.85434 0,-5.63193 -1.96547,-6.98973 -9.98153,-6.89548 -5.45146,0.0641 -16.38294,3.41599 -17.6087,5.39931 -0.59092,0.95612 4.22719,6.854 5.59918,6.854 0.34913,0 2.77571,-0.72949 5.39241,-1.62109 z M 519,470.25024 c 10.85312,-5.42616 21.32668,-6.38743 28.58207,-2.62329 2.78565,1.44522 2.99157,1.39312 5.18077,-1.31096 3.38939,-4.18652 3.82099,-7.0528 1.52883,-10.15304 -11.02376,-14.91014 -66.62534,-16.22303 -82.87363,-1.95684 -4.19456,3.68287 -4.47514,7.38414 -0.88335,11.65274 2.53468,3.01231 2.53468,3.01231 6.75,1.09869 2.31842,-1.05249 5.60276,-1.9235 7.29853,-1.93558 5.83365,-0.0415 14.40271,2.25527 20.65365,5.53593 3.44472,1.80788 6.48813,3.20944 6.76313,3.11458 0.275,-0.0949 3.425,-1.63486 7,-3.42223 z m -12,-8.3693 c -6.44652,-1.72893 -12,-4.03751 -12,-4.9884 0,-3.17261 22.67975,-4.71284 30.25,-2.05435 5.91361,2.07673 5.22514,2.75495 -6.67814,6.57871 -5.49792,1.76613 -6.5583,1.80866 -11.57186,0.46404 z m 83.58318,-16.37658 c 9.95121,-7.59017 26.39971,-22.56944 25.23864,-22.98426 -0.727,-0.25974 -10.09682,-3.44939 -20.82182,-7.08811 -21.91638,-7.43569 -40.94043,-16.1555 -48.79911,-22.36743 -5.26849,-4.1645 -5.26849,-4.1645 -12.48469,0.38453 -3.96891,2.50197 -8.33046,5.41566 -9.69234,6.47485 -2.47613,1.92581 -2.47613,1.92581 2.39206,6.25094 8.46885,7.52411 17.74371,14.15384 33.64526,24.04986 8.49135,5.28443 17.91382,11.42566 20.93882,13.64717 3.025,2.22151 5.68252,4.05913 5.90561,4.0836 0.22308,0.0245 1.87799,-1.07855 3.67757,-2.45115 z M 688.71552,428.75 c 12.87029,-17.15686 15.46453,-20.90328 14.87967,-21.48815 -0.90855,-0.90854 -14.81722,4.76754 -17.46341,7.12676 -2.48684,2.21715 -12.93036,15.89784 -13.68697,17.92951 -0.43143,1.15848 5.95165,5.55043 8.19349,5.63761 0.62606,0.0243 4.26081,-4.11823 8.07722,-9.20573 z m -344.19765,2.59584 c 2.19017,-1.45979 4.13031,-2.77047 4.31141,-2.91262 0.18111,-0.14215 -6.1564,-8.96027 -14.08335,-19.59583 -7.92695,-10.63557 -15.50013,-21.01932 -16.82928,-23.07501 -1.32916,-2.05569 -2.71684,-3.74319 -3.08374,-3.75 C 313.10915,381.98039 305,386.04637 305,386.94266 305,388.16302 338.99724,434 339.90238,434 c 0.34834,0 2.42531,-1.19437 4.61549,-2.65416 z"
       id="path2" />
  </g>
</svg>
