<?xml version="1.0" encoding="UTF-8"?>
<!-- Generated by Pixelmator Pro 3.7.1 -->
<svg width="1024" height="1024" viewBox="0 0 1024 1024" xmlns="http://www.w3.org/2000/svg">
    <path id="Rounded-Rectangle" fill="#1c3048" fill-rule="evenodd" stroke="none" d="M 0 934 C 0 983.705627 40.294373 1024 90 1024 L 934 1024 C 983.705627 1024 1024 983.705627 1024 934 L 1024 90 C 1024 40.294373 983.705627 0 934 0 L 90 0 C 40.294373 0 0 40.294373 0 90 Z"/>
    <g id="g1">
        <path id="path1" fill="#ffffff" stroke="none" d="M 484.5 943.333679 C 455.166534 940.91272 436.64566 937.998291 412.341217 931.978882 C 379.585938 923.866455 353.642059 914.345093 322.5 899.007263 C 223.243195 850.122192 146.820023 765.916931 107.105087 661.679016 C 88.543991 612.962524 79.996147 564.945984 80.014381 509.5 C 80.047081 410.108948 115.359688 314.544312 181.443726 235.007202 C 191.357697 223.075012 213.401688 200.585083 227 188.529358 C 276.550354 144.599915 337.00119 111.488037 397.5 95.138245 C 455.082336 79.576538 510.161194 75.628967 566.227051 83.045166 C 648.243774 93.894165 721.206787 125.826965 786 179.230469 C 801.354736 191.886047 830.912292 221.036926 842.194336 234.651733 C 892.052002 294.817993 923.714905 361.793335 937.382935 436.000427 C 943.18103 467.479492 945.346802 507.283569 943.09613 541 C 938.61084 608.191772 918.031128 673.409607 882.667603 732.5 C 812.0224 850.544067 685.535461 930.395874 550 942.514648 C 535.400574 943.820007 496.314758 944.308777 484.5 943.333679 Z M 538 913.983398 C 563.320679 912.085815 582.104309 909.026184 606.406982 902.840698 C 725.457092 872.540344 824.40741 791.429932 876.573425 681.382996 C 895.563782 641.321838 906.902893 601.56427 912.618652 555 C 914.833557 536.955933 915.134094 489.494385 913.144165 472 C 903.555176 387.697571 870.315552 311.779907 815.068542 248 C 756.720642 180.640259 672.356628 131.944397 586.5 116.067566 C 558.641052 110.915833 543.94281 109.625183 512.5 109.569824 C 480.325378 109.513062 467.237549 110.602051 440 115.602051 C 376.10498 127.331299 314.471008 155.474731 263.838928 196.041199 C 207.509308 241.172485 166.343811 295.553223 139.040314 360.903503 C 102.863167 447.492676 99.383667 547.484863 129.436905 636.881409 C 163.455597 738.073547 235.893875 821.826538 331.5 870.506409 C 396.148773 903.423645 470.375031 919.051453 538 913.983398 Z M 473.5 897.400513 C 383.657959 887.15625 298.929688 845.853271 236.433151 781.836121 C 216.255676 761.167725 204.517792 746.749329 188.580658 723.055908 C 123.956238 626.980164 107.079987 500.999512 144.165726 391.5 C 172.767014 307.051636 226.839005 237.149109 302 187.45697 C 391.971283 127.973083 500.793884 109.621643 606.411133 136.122253 C 633.241638 142.85437 655.323486 151.260986 683.5 165.470276 C 723.45575 185.619812 753.846375 207.702393 786.00354 239.951965 C 842.823547 296.935242 879.611694 367.506958 893.975342 447.077393 C 898.673767 473.105164 900.427002 516.324707 897.967957 545.5 C 894.170898 590.549255 880.082153 639.915955 859.028442 681.943237 C 839.184448 721.555664 817.080994 752.202393 786.11377 783.040161 C 753.645447 815.372864 723.512268 837.350708 684.432068 857.202515 C 640.685913 879.424438 592.038391 893.705078 545.5 897.986389 C 530.223083 899.391785 487.946625 899.047729 473.5 897.400513 Z M 511.450012 886.158264 C 510.92749 885.695251 507.799988 884.743225 504.5 884.042542 C 483.708282 879.627991 447.632477 866.891663 428.637634 857.259827 C 411.609253 848.625122 402.978058 842.715515 394.432556 833.84021 C 386.181183 825.270325 382.759338 818.820984 382.174591 810.736755 C 380.642731 789.559265 397.659088 775.147156 448.5 754.562012 C 481.944427 741.020569 495.65152 733.654846 507.416229 722.902588 C 513.151001 717.661316 518.353516 710.232666 519.3797 705.819946 C 519.89032 703.624451 518.510193 704.618896 511.746796 711.319946 C 498.997284 723.951904 484.233765 731.770691 444.5 746.93396 C 394.970459 765.835571 376.649841 779.470581 372.12439 800.799194 C 370.621979 807.880005 370.705933 811.443481 372.542328 818.539917 C 378.015503 839.689941 402.678406 859.234863 446.878998 877.450439 C 459.658966 882.717224 469.321869 884.407715 495.062744 885.880127 C 503.003235 886.33429 510.152496 886.772095 510.950012 886.852966 C 511.81485 886.940674 512.016602 886.660278 511.450012 886.158264 Z M 624.217285 868.316589 C 630.111816 866.273132 634.832275 864.498962 634.707275 864.373901 C 634.582214 864.248901 627.059448 863.175354 617.989929 861.988403 C 578.618164 856.835449 540.610107 848.249817 511 837.820435 C 469.054321 823.046143 452.525696 806.751709 461.062469 788.590515 C 466.037598 778.006348 477.538055 769.791382 512.850098 751.597717 C 549.316101 732.809509 560.671753 724.475342 566.796082 712.005493 C 574.076477 697.181824 567.270813 679.420288 549 665.560852 C 539.119873 658.066223 530.62439 653.299072 491.294434 633.180176 C 469.957489 622.265442 450.024994 611.842712 447 610.018616 C 436.344147 603.592896 414 588.626465 414 587.914734 C 414 587.166138 430.366943 575.180176 432.514435 574.356079 C 433.186249 574.098267 438.857849 577.993469 445.11795 583.012085 C 468.874329 602.056946 486.299591 612.539612 534.547424 636.810913 C 552.121338 645.65155 570.775024 655.697388 576 659.13501 C 588.47113 667.339905 601.703064 680.526001 605.467102 688.5 C 613.200439 704.882813 607.55127 721.543701 589.760254 734.82373 C 581.95874 740.647156 577.89032 742.831482 546 758.318481 C 521.75415 770.093079 514 777.361084 514 788.312256 C 514 799.623596 528.107178 808.878967 556.105469 815.936646 C 574.730774 820.631653 604.03418 825.130737 627.94989 826.967163 C 643.81134 828.185181 686.971313 828.247498 702.17926 827.074402 C 714.502869 826.123779 714.101013 826.317383 732.560913 812.434753 C 763.944702 788.832703 794.648682 757.957581 815.23761 729.29718 C 830.091614 708.619995 853.987122 666.496277 852.407959 663.772217 C 852.002319 663.07251 848.67627 658.900024 845.016785 654.5 C 841.357239 650.099976 832.820679 639.75 826.046692 631.5 C 805.717285 606.741089 801.041626 602.774841 794.196899 604.482788 C 789.339172 605.694885 785.366394 609.725708 771.389587 627.623291 L 757.599365 645.281921 L 755.786987 641.014587 C 752.384033 633.001953 752.231567 633.456421 763.006409 619.5 C 780.312805 597.083496 785.473938 593 796.5 593 C 803.885498 593 809.519165 595.614441 815.914429 602.009644 C 818.528625 604.623901 828.904663 616.828674 838.972229 629.131409 C 849.039795 641.434143 857.598938 651.628113 857.992554 651.784729 C 859.716736 652.470581 870.355042 620.471985 875.999634 597.621704 C 883.901245 565.634583 886.487976 540.435181 885.691956 503.200195 C 884.981262 469.957275 882.816528 453.235901 875.389343 423.618896 C 868.158325 394.783936 867.184509 392.565063 855.249329 377.730164 C 815.506775 328.331665 800.67395 310.874329 796.738708 308.866699 C 791.26532 306.074341 782.798157 306.583435 778.010315 309.992676 C 776.162903 311.308105 765.961975 324.110413 755.341614 338.4422 C 729.415527 373.428345 732.007507 370.763062 723.403992 371.282471 L 716.308044 371.710938 L 735.176575 346.209106 C 751.772156 323.779297 753.87854 320.51416 752.662781 319.103638 C 751.902527 318.22168 744.817505 309.625 736.918213 300 C 696.149536 250.324707 681.745239 233.788391 677.60553 231.908386 C 672.384705 229.537415 665.63385 229.528931 660.442871 231.886719 C 656.271301 233.781433 653.978882 236.250427 638.124573 255.92334 C 627.613403 268.966187 624.654846 271.459473 617.069092 273.666748 C 610.065063 275.704834 604.045654 275.069031 586.322937 270.41925 C 562.437073 264.152466 540.418701 264.667603 533.862366 271.646484 C 531.074585 274.613953 530.86261 280.615173 533.408386 284.500549 C 534.324646 285.898926 538.991882 290.070801 543.780029 293.771484 C 557.018799 304.003418 563.426514 310.457275 567.129639 317.289307 C 570.200867 322.955444 570.496216 324.24646 570.497986 332.014771 C 570.5 339.678101 570.158447 341.228149 567.08429 347.514771 C 559.330627 363.371338 537.621948 380.346252 491 407.008301 C 449.745361 430.600952 431.875702 442.992737 417.966217 457.653687 C 408.17868 467.969971 402.950256 476.964478 399.971985 488.609436 C 395.375488 506.581665 399.644989 526.873657 411.222321 542.079468 C 413.073395 544.510742 414.899933 547.010254 415.28125 547.63385 C 415.703979 548.325317 413.086609 550.764221 408.573853 553.88385 C 404.503448 556.697754 400.884491 559 400.531708 559 C 398.780243 559 386.765442 549.841431 379.852295 543.236633 C 370.41217 534.21759 365.502472 527.055725 362.283752 517.609009 C 355.960022 499.049438 361.439789 480.176147 378.334229 462.328308 C 391.384613 448.541504 403.315674 439.647827 429.5 424.188232 C 452.433075 410.648254 460.152374 405.819031 459.655914 405.32251 C 458.982544 404.64917 442.184723 411.876709 427.727325 419.060303 C 401.974274 431.856567 383.851105 443.978638 371 457.00354 C 362.126862 465.996704 357.592163 472.657593 353.151093 483.221191 C 350.754456 488.921875 350.51181 490.696899 350.515656 502.5 C 350.519684 514.521057 350.736298 516.0271 353.39328 522.5 C 359.203522 536.654785 370.107788 549.660095 384.929565 560.112671 C 388.268311 562.467224 391 564.682373 391 565.035156 C 391 565.72522 362.268463 583.060425 357.813324 585.058411 C 355.381287 586.149109 354.667908 585.926514 350.286102 582.709961 C 343.491577 577.722351 328.216644 561.693726 323.170563 554.256531 C 311.851593 537.574097 307.400391 523.186218 308.271393 506.097168 C 310.127075 469.688232 337.825531 440.93103 397.057861 413.916931 C 411.474884 407.341797 430.695953 399 431.429474 399 C 432.78656 399 486.346191 375.913208 496.5 370.951416 C 528.251587 355.43573 542.964111 341.127563 542.990234 325.739136 C 543.00415 317.552979 540.175354 312.327637 529.689575 301.169678 C 519.796814 290.642822 517.054749 285.803772 517.021973 278.815063 C 516.993774 272.802368 518.344849 269.314575 522.31134 265.160706 C 532.911926 254.059326 556.305298 251.004272 581.22113 257.467407 C 584.123047 258.220154 586.614868 258.718506 586.758545 258.574768 C 587.070129 258.263245 586.409363 257.383484 555.160156 216.5 C 541.707581 198.900024 528.855774 182.536133 526.600464 180.135803 C 517.644226 170.603516 506.633331 170.416138 497.779694 179.645386 C 492.734436 184.904663 421.012115 278.230347 421.005371 279.544739 C 420.997375 281.029846 453.59433 320.051392 473.334778 342.188599 C 482.500641 352.467285 490 361.243042 490 361.690308 C 490 362.137512 487.980469 363.574829 485.512146 364.884277 C 480.052887 367.780396 481.394073 368.707336 466.079865 351.453369 C 444.251129 326.859619 419.454163 297.35083 383.21814 252.846558 C 366.685364 232.541321 363.510773 229.979492 354.934265 230.021973 C 346.134125 230.065552 343.66687 232.09613 324.4086 255.144653 C 314.594666 266.890137 298.331573 286.320129 288.268341 298.32251 C 277.222321 311.49707 270.253784 320.611694 270.683655 321.32251 C 271.075287 321.970093 276.706665 329.792969 283.197845 338.706604 C 289.689026 347.620239 295 355.14856 295 355.436279 C 295 356.210815 287.29892 360 285.724854 360 C 284.979706 360 278.889313 352.462524 272.190613 343.25 C 255.612732 320.450928 248.99733 312.040283 245.763443 309.651245 C 244.002197 308.350098 240.944763 307.479004 237.184875 307.207031 C 227.16156 306.481934 225.957504 307.510803 200.868942 338.237427 C 188.625839 353.231812 174.08429 371.039795 168.554382 377.810669 C 159.796417 388.533936 158.141144 391.177246 155.716934 398.310669 C 148.291519 420.1604 140.97525 457.099243 138.902451 483.204773 C 137.444092 501.571777 138.277344 540.601074 140.477936 557 C 143.61322 580.364197 151.389954 614.440674 156.178726 625.798462 L 157.5 628.93219 L 169 614.30658 C 175.324997 606.262512 183.199997 596.179138 186.5 591.899048 C 189.800003 587.618958 192.765976 584.090759 193.091064 584.058533 C 194.337997 583.935059 199.093475 594.040283 198.356339 595.24707 C 197.784134 596.183838 174.988907 625.309387 162.713654 640.787781 C 161.290497 642.582336 167.230911 657.297913 177.937408 678.5 C 191.565491 705.487732 209.249084 731.896423 228.468246 753.962769 C 240.215347 767.450134 266.612823 793.002258 278.96579 802.843201 L 289.43161 811.180725 L 291.17511 804.087891 C 293.381104 795.113464 296.771301 789.339966 304.886322 780.73761 C 322.617737 761.941406 354.453705 747.901367 413 733.058228 C 448.336273 724.099487 470.214844 715.194946 480.067383 705.761841 C 486.580292 699.526184 489.02771 694.785889 489.72937 687.047974 C 491.13028 671.598267 478.081543 659.430115 435 636.011902 C 409.828339 622.329102 394.519196 613.739563 388.605652 609.981323 L 382.711273 606.235291 L 385.105652 604.691528 C 386.422546 603.842529 391.498596 600.68988 396.385803 597.685669 L 405.271606 592.223511 L 410.885803 596.481628 C 426.600922 608.400818 444.440277 618.673096 485.5 639.446106 C 523.018738 658.427673 535.477295 665.89386 545.923096 675.656494 C 562.847961 691.474548 563.943542 704.441589 549.542908 718.501099 C 541.879883 725.982605 535.401123 729.933411 506.045898 745.026367 C 491.445648 752.533081 476.799988 760.398865 473.5 762.505981 C 465.37851 767.69165 453.921509 779.389221 450.978973 785.5 C 447.697693 792.314209 447.579376 803.397278 450.714783 810.250732 C 455.532074 820.78064 469.244659 831.609741 489.079865 840.548584 C 513.025757 851.339905 557.894287 863.448792 603 871.292908 C 609.630066 872.445862 614.124329 871.81543 624.217285 868.316589 Z M 580 809.787537 C 576.974976 809.251343 574.19574 808.517273 573.823914 808.156311 C 572.46405 806.836243 586.795349 796.724548 597.5 791.451233 C 603.718323 788.388 618.344055 782.779724 631.145569 778.549805 C 677.279541 763.306091 694.661743 754.569336 712.795288 737.51062 C 731.370667 720.036255 741.219604 698.305115 741.126221 675 C 741.082336 664.03241 739.352722 656.50238 734.527222 646.27002 C 723.402344 622.680115 702.277039 617.053162 686.970947 633.602966 C 684.47998 636.296326 676.829956 646.325256 669.970947 655.889404 C 654.555054 677.385315 646.999634 686.306824 638.273254 693.318665 C 630.168091 699.831299 621.146484 705.479797 620.262207 704.59552 C 619.911499 704.244812 619.443115 701.379883 619.221252 698.228943 C 618.820984 692.542542 618.844238 692.486084 622.3526 690.622925 C 632.436035 685.267944 643.060242 673.751831 660.290527 649.5 C 675.062744 628.707825 683.138428 620.041809 691.643677 615.854675 C 711.489502 606.084595 732.46759 615.81665 744.516846 640.383423 C 750.222351 652.016296 752.013489 658.943237 752.691895 672 C 753.891541 695.087463 746.186707 716.755005 729.835205 736.278015 C 710.489502 759.375916 685.117371 773.69574 635.5 789.520081 C 615.046692 796.043213 603.537415 800.802307 593.647827 806.826233 C 589.879089 809.121826 586.504089 810.946533 586.147827 810.881226 C 585.791504 810.815918 583.025024 810.32373 580 809.787537 Z M 353.975739 729.757629 C 349.796906 725.749573 343.865265 721.553955 337.475739 718.086731 C 299.869812 697.680115 286.733429 679.912842 282.601563 643.86792 C 282.082397 639.338989 282.139374 639.222107 285.160309 638.61792 C 286.859619 638.278076 289.484894 638 290.994171 638 C 293.694092 638 293.756653 638.142639 294.872772 646.845825 C 298.238068 673.087097 309.35849 688.561707 335.536621 703.43158 C 357.211914 715.743713 363.451904 720.436096 369.1362 728.697937 L 372.103149 733.010254 L 369.658325 733.939819 C 362.226349 736.765442 360.918457 736.416687 353.975739 729.757629 Z M 547.159058 631.373596 L 529.818115 622.926575 L 531.583252 620.213257 C 538.029785 610.304199 549.597595 600.000488 574.425476 582.052551 C 601.374512 562.57135 612.571655 551.379395 619.230652 537.268311 C 623.37085 528.494751 624.974426 521.695435 624.988159 512.855347 C 625.006836 500.846741 621.075562 489.725891 612.394653 477.229858 L 608.038818 470.959717 L 612.161621 467.229858 C 619.893738 460.234741 619.231689 460.334473 627.294128 464.950012 C 642.773071 473.811401 655.454407 486.87439 660.11322 498.756958 C 661.866516 503.228943 662.359741 506.491943 662.341614 513.5 C 662.313599 524.319763 660.296143 530.595032 653.425842 541.232117 C 645.098267 554.125366 633.268127 564.310791 602 585.508179 C 580.462341 600.10907 574.074768 605 576.54364 605 C 580.165222 605 613.694458 586.310852 631 574.646118 C 645.076904 565.157654 660.306702 549.950867 665.197876 540.5 C 675.311462 520.958069 674.936462 501.997437 664.106262 485.30957 C 658.315186 476.38623 641.990234 462.130066 631.25 456.616943 C 629.462524 455.699341 628 454.57312 628 454.114197 C 628 453.655273 633.228394 449.176697 639.618713 444.161865 L 651.237366 435.043884 L 663.25415 441.17041 C 689.494751 454.548645 705.51062 470.887146 712.599365 491.509644 C 714.946899 498.339172 715.34491 501.098022 715.338989 510.5 C 715.332947 519.969666 714.932251 522.679199 712.458801 529.975952 C 707.630371 544.220032 696.638733 558.224243 679.644897 571.783325 C 669.745361 579.682007 658.542053 586.196106 626 602.975037 C 592.15033 620.428162 585.481079 624.337219 574.347656 633.25 C 569.710144 636.962524 565.59729 639.959656 565.207947 639.910339 C 564.818542 639.861023 556.696594 636.01947 547.159058 631.373596 Z M 274 628.382507 C 266.375793 627.46228 255.127716 624.619141 248 621.810608 C 221.080063 611.203369 201.146194 586.920715 193.053391 554.876709 C 185.551666 525.173157 187.00502 496.289612 197.521637 466.076172 C 209.709396 431.061646 234.333344 401.605469 269.5 379.972778 C 278.312347 374.551941 294.571655 366.790649 312 359.685608 C 335.091064 350.272095 338.118713 348.959351 347.438843 344.319336 C 371.667938 332.256897 390.80777 313.958984 396.337128 297.571899 C 397.251709 294.861389 398 291.598877 398 290.321899 C 398 289.0448 398.265381 288 398.589722 288 C 399.305023 288 402.044556 291.2146 405.585175 296.208435 L 408.214417 299.91687 L 404.56955 307.293579 C 397.424927 321.753052 384.482025 335.356873 367.5 346.255859 C 357.069916 352.949829 346.240875 358.12561 320.614227 368.664978 C 279.455505 385.592285 263.886505 395.042725 243.5 415.473755 C 225.94075 433.071411 215.129333 450.428345 207.557022 473.177612 C 200.697891 493.784302 198.274612 519.871094 201.436432 539.066162 C 206.842743 571.887329 222.189423 595.528809 246.213287 608.044617 C 295.786499 633.870972 369.449463 602.996826 481.116455 509.59021 C 490.677399 501.592773 498.974213 495.038269 499.553833 495.024658 C 500.133453 495.011108 502.017975 496.462524 503.741669 498.25 L 506.875671 501.5 L 500.187836 507.147705 C 496.509521 510.253967 489.225006 516.485535 484 520.995605 C 417.25824 578.605286 353.212067 616.640503 307.324524 625.918091 C 297.444611 627.915649 280.508514 629.168091 274 628.382507 Z M 285.001129 605.75 C 285.00174 605.0625 285.901245 597.525024 287 589 C 290.292297 563.455811 289.327209 548.640564 283.511353 535.446411 C 280.920837 529.569397 275.900879 523.517212 271.901215 521.448914 C 266.457764 518.633972 257.874603 519.945251 253.130356 524.316589 C 250.756561 526.503845 238.054245 542.216064 226.046265 557.81842 L 219.644196 566.136902 L 217.24144 560.131409 L 214.838669 554.125854 L 226.136246 539.312927 C 246.45697 512.669189 252.248245 508.007813 265 508.031738 C 273.265564 508.047241 278.120331 510.215576 284.763794 516.859009 C 290.944153 523.039368 296.348755 533.614624 298.634491 544 C 300.841095 554.025818 300.830078 575.043762 298.610077 590.5 C 296.05722 608.274048 296.691833 607 290.391571 607 C 286.744354 607 285.000336 606.595581 285.001099 605.75 Z M 660.167725 597.122131 C 663.817505 594.989319 670.7854 590.519897 675.651855 587.190063 C 682.739014 582.340759 686.987793 580.320862 697 577.040771 C 724.187683 568.133972 747.53595 554.426147 765.124512 537.044678 C 787.576172 514.857361 798.360046 490.936035 798.27887 463.5 C 798.236267 449.111572 796.058533 439.680786 789.85022 427 C 784.161316 415.380127 773.749878 404.852051 762.713684 399.55957 C 738.687683 388.037598 711.111084 390.329102 678.962524 406.518921 C 657.727173 417.21283 638.492432 431.69519 590 473.501465 C 573.675354 487.575195 543.133362 513.360291 529.889221 524.25 C 526.711853 526.862488 523.749451 528.986816 523.306091 528.970703 C 522.862732 528.95459 521.01709 527.592651 519.204651 525.944275 L 515.909302 522.947205 L 519.191711 520.223572 C 520.99707 518.725586 527.851196 512.775024 534.423218 507 C 563.654358 481.313721 595.211487 454.174316 620.624268 432.866455 C 662.339233 397.889648 698.295044 380.891235 731 380.685486 C 744.503784 380.600464 754.909119 382.897339 766.5 388.521729 C 782.518066 396.294312 793.126465 406.774414 800.894287 422.5 C 806.94165 434.742615 809.179138 444.232788 809.736328 460.003418 C 810.890625 492.674561 799.317749 519.916138 773.415283 545.5 C 754.849182 563.837769 732.657532 576.92804 701.373413 587.995605 C 694.072876 590.578308 656.214172 601 654.132385 601 C 653.802063 601 656.517944 599.254944 660.167725 597.122131 Z M 499.5 579.395325 C 473.417938 575.537109 462.270996 567.25824 470.75 558.042664 L 473.5 555.053711 L 479.427155 557.098633 C 484.682312 558.911743 486.085602 559.016235 491.804169 558.020386 C 495.351593 557.402649 501.382324 555.321838 505.205841 553.396362 L 512.157654 549.895447 L 515.402222 551.809814 C 525.567078 557.80719 540.368713 559.929138 547.242859 556.37439 C 550.350464 554.767395 550.418457 554.784729 553.193176 557.890198 C 559.997437 565.505493 553.490173 572.670227 535.338928 577.548279 C 529.61731 579.085938 505.73056 580.317017 499.5 579.395325 Z M 525.75 568.945435 C 527.537476 568.31781 529 567.458679 529 567.036133 C 529 565.408142 513.940552 560.747986 510.489471 561.307983 C 505.756256 562.076111 495 566.093933 495 567.093872 C 495 567.893066 499.870483 569.510925 505 570.415588 C 509.012512 571.12323 522.210632 570.18811 525.75 568.945435 Z M 482.41272 551.054626 C 477.575562 549.902283 477 549.186646 477 544.324341 C 477 540.024963 477.127502 539.812561 479.25 540.575439 C 483.198914 541.994751 492.578705 541.506042 495.273041 539.740662 C 497.701263 538.149658 497.90152 538.204102 501.640045 541.472595 C 505.347839 544.714172 505.424011 544.904053 503.572754 546.289795 C 498.959747 549.742737 487.622406 552.295654 482.41272 551.054626 Z M 531 550.579468 C 520.834717 548.460266 508.092194 539.829651 499.002655 528.907471 L 493.865265 522.734253 L 496.997498 519.502563 L 500.129761 516.270935 L 509.81488 525.984619 C 521.28125 537.484924 528.059998 541.353088 536.904785 541.443054 C 539.982178 541.474365 543.512512 541.132202 544.75 540.682617 C 546.87262 539.911499 547 540.121826 547 544.3974 C 547 547.70575 546.527466 549.17157 545.25 549.825684 C 542.073425 551.452271 536.580322 551.742798 531 550.579468 Z M 482.666656 534.333313 C 481.448242 533.114929 481.971649 532.156372 485.053741 529.961731 C 487.978729 527.878967 488.189514 527.861511 490.053741 529.548645 C 491.124176 530.517395 492 531.862732 492 532.53833 C 492 534.465149 484.282684 535.949341 482.666656 534.333313 Z M 533.25 534.337341 C 531.073181 533.458984 531.82196 532.404053 539.5 525.532288 L 547 518.819824 L 547 525.460754 C 547 532.093445 546.995972 532.103455 543.532104 533.550659 C 540.108948 534.980957 535.684021 535.319519 533.25 534.337341 Z M 517.416809 501.652466 C 511.135773 493.995789 502.820892 487.524902 495.277344 484.422852 C 489.021118 481.850159 485.297363 481.480347 480.243408 482.92981 L 477 483.860352 L 477 479.552612 C 477 476.994873 477.593445 474.75238 478.460785 474.032593 C 483.153229 470.138184 496.953613 472.953796 507.658936 479.989746 C 511.046356 482.216064 517.474976 487.901123 521.944824 492.623169 C 530.696167 501.868347 530.711365 501.933105 525.070862 505.949524 L 522.464172 507.805664 Z M 476.438568 498.390747 C 477.164551 492.318237 478.492798 490.416748 482.756561 489.34613 C 485.404907 488.681152 492 489.750854 492 490.845459 C 492 491.568115 479.992767 501.743286 477.117126 503.45752 C 475.973389 504.139343 475.856079 503.263245 476.438568 498.390747 Z M 532.75 493.530457 C 531.787476 492.206787 531 490.891357 531 490.607178 C 531 489.642578 537.814941 488.806519 540.007019 489.502197 C 542.176086 490.190674 542.172791 490.210205 539.40686 493.097168 C 536.051697 496.599243 535.029846 496.665771 532.75 493.530457 Z M 522.099121 482.602295 C 520.394592 480.843628 519 479.063965 519 478.647339 C 519 476.774536 530.713989 472.776367 536.5 472.674194 C 544.935608 472.525391 547 473.897217 547 479.651855 C 547 483.937866 546.854919 484.189392 544.75 483.552856 C 538.758057 481.740845 534.214111 481.811707 529.749146 483.786743 L 525.198303 485.799805 Z M 505 470.568848 C 493.789215 464.820618 482.215302 463.669434 476.070374 467.691284 C 473.739227 469.217041 473.526367 469.153564 470.820374 466.125 C 465.522522 460.195679 467.775635 454.822266 477.407806 450.414795 C 487.941254 445.594849 494.372833 444.498657 512 444.519287 C 526.165955 444.535767 529.62738 444.862183 536.46991 446.826538 C 554.817261 452.093689 559.836548 458.265625 552.607422 466.670044 C 550.717651 468.867004 549.940369 469.195435 548.823669 468.268555 C 548.050659 467.627075 545.254944 466.617432 542.611023 466.024902 C 536.044312 464.553223 527.328369 466.205322 518.670349 470.562744 C 514.914063 472.453247 511.764069 473.977905 511.670349 473.950806 C 511.57666 473.923706 508.575012 472.401855 505 470.568848 Z M 520.948364 460.456482 C 525.37677 459.057556 529 457.517456 529 457.034058 C 529 455.083374 521.065002 453.576477 511 453.615845 C 500.949982 453.655151 495 454.873657 495 456.892578 C 495 458.142639 507.313416 462.579834 511.698395 462.90979 C 512.357483 462.959412 516.52002 461.855408 520.948364 460.456482 Z M 574.282471 439.663574 C 567.562866 435.173584 556.312866 427.780029 549.282471 423.233398 C 535.737549 414.473755 522.5 403.896484 522.5 401.833252 C 522.5 401.152283 526.624634 397.959229 531.665833 394.737671 L 540.831726 388.880249 L 547.165833 393.549561 C 558.108459 401.615967 575.496704 409.203003 605.5 419.002686 C 611 420.799072 615.82605 422.452881 616.224609 422.677734 C 617.290039 423.278931 588.319336 448.214905 586.90564 447.913574 C 586.682495 447.865967 581.002136 444.153503 574.282471 439.663574 Z M 675.759766 435.718994 C 673.702698 434.498535 672.015198 433.183105 672.009766 432.795715 C 671.999207 432.030273 679.800293 421.40271 684.285583 416.072388 C 686.970215 412.881897 699.058533 407.117188 703.237732 407.034424 C 705.307495 406.993408 683.228027 437.366333 680.932129 437.718384 C 680.14447 437.839111 677.816895 436.939453 675.759766 435.718994 Z M 322.001678 410.973389 C 312.544312 398.308716 305.030945 387.361694 305.305359 386.646606 C 305.579773 385.931519 307.934113 384.533081 310.537231 383.53894 C 314.495087 382.027405 315.397705 381.95813 316.048889 383.115723 C 317.111298 385.004272 331.234528 404.189087 340.993439 417 C 345.392609 422.775024 348.993744 427.77771 348.995972 428.117065 C 349.000977 428.915649 341.329956 434 340.119904 434 C 339.612274 434 331.459076 423.638062 322.001678 410.973389 Z"/>
    </g>
</svg>
